# MagicaVoxel @ Ephtracy

# group
o 

# material
mtllib Zombie1.mtl
usemtl palette

# normals
vn -1 0 0
vn 1 0 0
vn 0 0 1
vn 0 0 -1
vn 0 -1 0
vn 0 1 0

# texcoords
vt 0.154297 0.5
vt 0.603516 0.5
vt 0.958984 0.5
vt 0.978516 0.5
vt 0.986328 0.5
vt 0.990234 0.5
vt 0.994141 0.5

# verts
v -1.5 1.6 -0.1
v -1.5 1.6 -0.2
v -1.5 1.9 -0.1
v -1.5 1.9 -0.2
v -1.2 1.6 -0.2
v -1.2 1.6 -0.3
v -1.2 1.9 -0.1
v -1.2 1.9 -0.2
v -1.2 1.9 -0.3
v -1.2 2.1 -0.1
v -1.2 2.1 -0.2
v -0.8 1.6 -5.96046e-08
v -0.8 1.6 -0.1
v -0.8 1.6 -0.3
v -0.8 1.6 -0.4
v -0.8 1.9 -5.96046e-08
v -0.8 1.9 -0.1
v -0.8 1.9 -0.3
v -0.8 1.9 -0.4
v -0.5 0 0.2
v -0.5 0 -0.4
v -0.5 0.2 0.2
v -0.5 0.2 -5.96046e-08
v -0.5 0.2 -0.4
v -0.5 1 -5.96046e-08
v -0.5 1 -0.4
v -0.5 1.6 -5.96046e-08
v -0.5 1.6 -0.4
v -0.4 1 -0.4
v -0.4 1 -0.5
v -0.4 1.7 0.2
v -0.4 1.7 -5.96046e-08
v -0.4 1.8 -0.4
v -0.4 1.8 -0.5
v -0.4 1.9 -5.96046e-08
v -0.4 1.9 -0.3
v -0.4 2.7 0.2
v -0.4 2.7 -0.3
v 0.1 0 0.2
v 0.1 0 -0.4
v 0.1 0.2 0.2
v 0.1 0.2 -5.96046e-08
v 0.1 0.2 -0.4
v 0.1 0.8 -5.96046e-08
v 0.1 0.8 -0.4
v 1.1 1.9 -0.1
v 1.1 1.9 -0.2
v 1.1 2.1 -0.1
v 1.1 2.1 -0.2
v -1.1 1.9 -0.1
v -1.1 1.9 -0.2
v -1.1 2.1 -0.1
v -1.1 2.1 -0.2
v -0.1 0 0.2
v -0.1 0 -0.4
v -0.1 0.2 0.2
v -0.1 0.2 -5.96046e-08
v -0.1 0.2 -0.4
v -0.1 0.8 -5.96046e-08
v -0.1 0.8 -0.4
v 0.4 1 -0.4
v 0.4 1 -0.5
v 0.4 1.7 0.2
v 0.4 1.7 -5.96046e-08
v 0.4 1.8 -0.4
v 0.4 1.8 -0.5
v 0.4 1.9 -5.96046e-08
v 0.4 1.9 -0.3
v 0.4 2.7 0.2
v 0.4 2.7 -0.3
v 0.5 0 0.2
v 0.5 0 -0.4
v 0.5 0.2 0.2
v 0.5 0.2 -5.96046e-08
v 0.5 0.2 -0.4
v 0.5 1 -5.96046e-08
v 0.5 1 -0.4
v 0.5 1.6 -5.96046e-08
v 0.5 1.6 -0.4
v 0.8 1.6 -5.96046e-08
v 0.8 1.6 -0.1
v 0.8 1.6 -0.3
v 0.8 1.6 -0.4
v 0.8 1.9 -5.96046e-08
v 0.8 1.9 -0.1
v 0.8 1.9 -0.3
v 0.8 1.9 -0.4
v 1.2 1.6 -0.2
v 1.2 1.6 -0.3
v 1.2 1.9 -0.1
v 1.2 1.9 -0.2
v 1.2 1.9 -0.3
v 1.2 2.1 -0.1
v 1.2 2.1 -0.2
v 1.5 1.6 -0.1
v 1.5 1.6 -0.2
v 1.5 1.9 -0.1
v 1.5 1.9 -0.2
v -0.5 0 0.2
v -0.5 0.2 0.2
v -0.4 1.7 0.2
v -0.4 2.7 0.2
v -0.3 2 0.2
v -0.3 2.1 0.2
v -0.3 2.2 0.2
v -0.3 2.5 0.2
v -0.2 1.8 0.2
v -0.2 2 0.2
v -0.2 2.3 0.2
v -0.2 2.4 0.2
v -0.1 0 0.2
v -0.1 0.2 0.2
v -0.1 2 0.2
v -0.1 2.1 0.2
v -0.1 2.2 0.2
v -0.1 2.3 0.2
v -0.1 2.4 0.2
v -0.1 2.5 0.2
v 0 1.8 0.2
v 0 1.9 0.2
v 0 2 0.2
v 0 2.1 0.2
v 0.1 0 0.2
v 0.1 0.2 0.2
v 0.1 1.8 0.2
v 0.1 1.9 0.2
v 0.1 2.2 0.2
v 0.1 2.3 0.2
v 0.1 2.4 0.2
v 0.1 2.5 0.2
v 0.2 1.8 0.2
v 0.2 2 0.2
v 0.2 2.3 0.2
v 0.2 2.4 0.2
v 0.3 2 0.2
v 0.3 2.1 0.2
v 0.3 2.2 0.2
v 0.3 2.5 0.2
v 0.4 1.7 0.2
v 0.4 2.7 0.2
v 0.5 0 0.2
v 0.5 0.2 0.2
v -0.8 1.6 -5.96046e-08
v -0.8 1.9 -5.96046e-08
v -0.5 0.2 -5.96046e-08
v -0.5 1 -5.96046e-08
v -0.5 1.6 -5.96046e-08
v -0.4 1.7 -5.96046e-08
v -0.4 1.9 -5.96046e-08
v -0.1 0.2 -5.96046e-08
v -0.1 0.8 -5.96046e-08
v 0.1 0.2 -5.96046e-08
v 0.1 0.8 -5.96046e-08
v 0.4 1.7 -5.96046e-08
v 0.4 1.9 -5.96046e-08
v 0.5 0.2 -5.96046e-08
v 0.5 1 -5.96046e-08
v 0.5 1.6 -5.96046e-08
v 0.8 1.6 -5.96046e-08
v 0.8 1.9 -5.96046e-08
v -1.5 1.6 -0.1
v -1.5 1.9 -0.1
v -1.2 1.9 -0.1
v -1.2 2.1 -0.1
v -1.1 1.9 -0.1
v -1.1 2.1 -0.1
v -0.8 1.6 -0.1
v -0.8 1.9 -0.1
v 0.8 1.6 -0.1
v 0.8 1.9 -0.1
v 1.1 1.9 -0.1
v 1.1 2.1 -0.1
v 1.2 1.9 -0.1
v 1.2 2.1 -0.1
v 1.5 1.6 -0.1
v 1.5 1.9 -0.1
v -1.5 1.6 -0.2
v -1.5 1.9 -0.2
v -1.2 1.6 -0.2
v -1.2 1.9 -0.2
v -1.2 2.1 -0.2
v -1.1 1.9 -0.2
v -1.1 2.1 -0.2
v 1.1 1.9 -0.2
v 1.1 2.1 -0.2
v 1.2 1.6 -0.2
v 1.2 1.9 -0.2
v 1.2 2.1 -0.2
v 1.5 1.6 -0.2
v 1.5 1.9 -0.2
v -1.2 1.6 -0.3
v -1.2 1.9 -0.3
v -0.8 1.6 -0.3
v -0.8 1.9 -0.3
v -0.4 1.9 -0.3
v -0.4 2.7 -0.3
v 0.4 1.9 -0.3
v 0.4 2.7 -0.3
v 0.8 1.6 -0.3
v 0.8 1.9 -0.3
v 1.2 1.6 -0.3
v 1.2 1.9 -0.3
v -0.8 1.6 -0.4
v -0.8 1.9 -0.4
v -0.5 0 -0.4
v -0.5 0.2 -0.4
v -0.5 1 -0.4
v -0.5 1.6 -0.4
v -0.4 1 -0.4
v -0.4 1.8 -0.4
v -0.1 0 -0.4
v -0.1 0.2 -0.4
v -0.1 0.8 -0.4
v 0.1 0 -0.4
v 0.1 0.2 -0.4
v 0.1 0.8 -0.4
v 0.4 1 -0.4
v 0.4 1.8 -0.4
v 0.5 0 -0.4
v 0.5 0.2 -0.4
v 0.5 1 -0.4
v 0.5 1.6 -0.4
v 0.8 1.6 -0.4
v 0.8 1.9 -0.4
v -0.4 1 -0.5
v -0.4 1.8 -0.5
v 0.4 1 -0.5
v 0.4 1.8 -0.5
v -0.5 0 0.2
v -0.1 0 0.2
v 0.1 0 0.2
v 0.5 0 0.2
v -0.5 0 -0.4
v -0.1 0 -0.4
v 0.1 0 -0.4
v 0.5 0 -0.4
v -0.1 0.8 -5.96046e-08
v 0.1 0.8 -5.96046e-08
v -0.1 0.8 -0.4
v 0.1 0.8 -0.4
v -0.4 1 -0.4
v 0.4 1 -0.4
v -0.4 1 -0.5
v 0.4 1 -0.5
v -0.8 1.6 -5.96046e-08
v -0.5 1.6 -5.96046e-08
v 0.5 1.6 -5.96046e-08
v 0.8 1.6 -5.96046e-08
v -1.5 1.6 -0.1
v -0.8 1.6 -0.1
v 0.8 1.6 -0.1
v 1.5 1.6 -0.1
v -1.5 1.6 -0.2
v -1.2 1.6 -0.2
v 1.2 1.6 -0.2
v 1.5 1.6 -0.2
v -1.2 1.6 -0.3
v -0.8 1.6 -0.3
v 0.8 1.6 -0.3
v 1.2 1.6 -0.3
v -0.8 1.6 -0.4
v -0.5 1.6 -0.4
v 0.5 1.6 -0.4
v 0.8 1.6 -0.4
v -0.4 1.7 0.2
v 0.4 1.7 0.2
v -0.4 1.7 -5.96046e-08
v 0.4 1.7 -5.96046e-08
v -0.5 0.2 0.2
v -0.1 0.2 0.2
v 0.1 0.2 0.2
v 0.5 0.2 0.2
v -0.5 0.2 -5.96046e-08
v -0.1 0.2 -5.96046e-08
v 0.1 0.2 -5.96046e-08
v 0.5 0.2 -5.96046e-08
v -0.4 1.8 -0.4
v 0.4 1.8 -0.4
v -0.4 1.8 -0.5
v 0.4 1.8 -0.5
v -0.8 1.9 -5.96046e-08
v -0.4 1.9 -5.96046e-08
v 0.4 1.9 -5.96046e-08
v 0.8 1.9 -5.96046e-08
v -1.5 1.9 -0.1
v -1.2 1.9 -0.1
v -1.1 1.9 -0.1
v -0.8 1.9 -0.1
v 0.8 1.9 -0.1
v 1.1 1.9 -0.1
v 1.2 1.9 -0.1
v 1.5 1.9 -0.1
v -1.5 1.9 -0.2
v -1.2 1.9 -0.2
v -1.1 1.9 -0.2
v 1.1 1.9 -0.2
v 1.2 1.9 -0.2
v 1.5 1.9 -0.2
v -1.2 1.9 -0.3
v -0.8 1.9 -0.3
v -0.4 1.9 -0.3
v 0.4 1.9 -0.3
v 0.8 1.9 -0.3
v 1.2 1.9 -0.3
v -0.8 1.9 -0.4
v 0.8 1.9 -0.4
v -1.2 2.1 -0.1
v -1.1 2.1 -0.1
v 1.1 2.1 -0.1
v 1.2 2.1 -0.1
v -1.2 2.1 -0.2
v -1.1 2.1 -0.2
v 1.1 2.1 -0.2
v 1.2 2.1 -0.2
v -0.4 2.7 0.2
v 0.4 2.7 0.2
v -0.4 2.7 -0.3
v 0.4 2.7 -0.3

# faces
f 3/2/1 2/2/1 1/2/1
f 4/2/1 2/2/1 3/2/1
f 8/2/1 6/2/1 5/2/1
f 9/2/1 6/2/1 8/2/1
f 10/2/1 8/2/1 7/2/1
f 11/2/1 8/2/1 10/2/1
f 16/4/1 13/4/1 12/4/1
f 17/4/1 13/4/1 16/4/1
f 18/4/1 15/4/1 14/4/1
f 19/4/1 15/4/1 18/4/1
f 22/5/1 21/5/1 20/5/1
f 23/5/1 21/5/1 22/5/1
f 24/5/1 21/5/1 23/5/1
f 25/6/1 24/6/1 23/6/1
f 26/6/1 24/6/1 25/6/1
f 27/4/1 26/4/1 25/4/1
f 28/4/1 26/4/1 27/4/1
f 33/4/1 30/4/1 29/4/1
f 34/4/1 30/4/1 33/4/1
f 35/2/1 32/2/1 31/2/1
f 37/2/1 35/2/1 31/2/1
f 37/2/1 36/2/1 35/2/1
f 38/2/1 36/2/1 37/2/1
f 41/5/1 40/5/1 39/5/1
f 42/5/1 40/5/1 41/5/1
f 43/5/1 40/5/1 42/5/1
f 44/6/1 43/6/1 42/6/1
f 45/6/1 43/6/1 44/6/1
f 48/2/1 47/2/1 46/2/1
f 49/2/1 47/2/1 48/2/1
f 50/2/2 51/2/2 52/2/2
f 52/2/2 51/2/2 53/2/2
f 54/5/2 55/5/2 56/5/2
f 56/5/2 55/5/2 57/5/2
f 57/5/2 55/5/2 58/5/2
f 57/6/2 58/6/2 59/6/2
f 59/6/2 58/6/2 60/6/2
f 61/4/2 62/4/2 65/4/2
f 65/4/2 62/4/2 66/4/2
f 63/2/2 64/2/2 67/2/2
f 63/2/2 67/2/2 69/2/2
f 67/2/2 68/2/2 69/2/2
f 69/2/2 68/2/2 70/2/2
f 71/5/2 72/5/2 73/5/2
f 73/5/2 72/5/2 74/5/2
f 74/5/2 72/5/2 75/5/2
f 74/6/2 75/6/2 76/6/2
f 76/6/2 75/6/2 77/6/2
f 76/4/2 77/4/2 78/4/2
f 78/4/2 77/4/2 79/4/2
f 80/4/2 81/4/2 84/4/2
f 84/4/2 81/4/2 85/4/2
f 82/4/2 83/4/2 86/4/2
f 86/4/2 83/4/2 87/4/2
f 88/2/2 89/2/2 91/2/2
f 91/2/2 89/2/2 92/2/2
f 90/2/2 91/2/2 93/2/2
f 93/2/2 91/2/2 94/2/2
f 95/2/2 96/2/2 97/2/2
f 97/2/2 96/2/2 98/2/2
f 103/2/3 102/2/3 101/2/3
f 104/2/3 102/2/3 103/2/3
f 105/2/3 102/2/3 104/2/3
f 106/2/3 102/2/3 105/2/3
f 107/2/3 103/2/3 101/2/3
f 108/7/3 104/7/3 103/7/3
f 108/2/3 103/2/3 107/2/3
f 109/1/3 106/1/3 105/1/3
f 110/1/3 106/1/3 109/1/3
f 111/5/3 100/5/3 99/5/3
f 112/5/3 100/5/3 111/5/3
f 113/7/3 104/7/3 108/7/3
f 113/7/3 108/7/3 107/7/3
f 114/2/3 105/2/3 104/2/3
f 114/7/3 104/7/3 113/7/3
f 115/1/3 109/1/3 105/1/3
f 115/2/3 105/2/3 114/2/3
f 116/7/3 110/7/3 109/7/3
f 116/1/3 109/1/3 115/1/3
f 117/1/3 106/1/3 110/1/3
f 117/7/3 110/7/3 116/7/3
f 118/2/3 102/2/3 106/2/3
f 118/1/3 106/1/3 117/1/3
f 119/2/3 107/2/3 101/2/3
f 119/7/3 113/7/3 107/7/3
f 120/7/3 113/7/3 119/7/3
f 121/3/3 114/3/3 113/3/3
f 121/7/3 113/7/3 120/7/3
f 122/2/3 116/2/3 115/2/3
f 122/3/3 114/3/3 121/3/3
f 122/2/3 117/2/3 116/2/3
f 122/2/3 118/2/3 117/2/3
f 122/2/3 115/2/3 114/2/3
f 125/2/3 119/2/3 101/2/3
f 125/3/3 120/3/3 119/3/3
f 126/7/3 121/7/3 120/7/3
f 126/3/3 120/3/3 125/3/3
f 126/7/3 122/7/3 121/7/3
f 127/2/3 118/2/3 122/2/3
f 128/2/3 118/2/3 127/2/3
f 129/2/3 118/2/3 128/2/3
f 130/2/3 102/2/3 118/2/3
f 130/2/3 118/2/3 129/2/3
f 131/2/3 125/2/3 101/2/3
f 131/7/3 126/7/3 125/7/3
f 132/7/3 122/7/3 126/7/3
f 132/7/3 126/7/3 131/7/3
f 133/7/3 129/7/3 128/7/3
f 133/1/3 128/1/3 127/1/3
f 134/1/3 130/1/3 129/1/3
f 134/7/3 129/7/3 133/7/3
f 135/7/3 122/7/3 132/7/3
f 135/2/3 132/2/3 131/2/3
f 136/2/3 127/2/3 122/2/3
f 136/7/3 122/7/3 135/7/3
f 137/1/3 133/1/3 127/1/3
f 137/2/3 127/2/3 136/2/3
f 137/1/3 134/1/3 133/1/3
f 138/2/3 102/2/3 130/2/3
f 138/1/3 134/1/3 137/1/3
f 138/1/3 130/1/3 134/1/3
f 139/2/3 137/2/3 136/2/3
f 139/2/3 135/2/3 131/2/3
f 139/2/3 138/2/3 137/2/3
f 139/2/3 136/2/3 135/2/3
f 139/2/3 131/2/3 101/2/3
f 140/2/3 102/2/3 138/2/3
f 140/2/3 138/2/3 139/2/3
f 141/5/3 124/5/3 123/5/3
f 142/5/3 124/5/3 141/5/3
f 147/4/3 144/4/3 143/4/3
f 148/4/3 144/4/3 147/4/3
f 148/4/3 147/4/3 146/4/3
f 149/4/3 144/4/3 148/4/3
f 150/6/3 146/6/3 145/6/3
f 151/6/3 146/6/3 150/6/3
f 153/6/3 146/6/3 151/6/3
f 154/4/3 148/4/3 146/4/3
f 156/6/3 153/6/3 152/6/3
f 157/4/3 155/4/3 154/4/3
f 157/6/3 153/6/3 156/6/3
f 157/6/3 146/6/3 153/6/3
f 157/4/3 154/4/3 146/4/3
f 158/4/3 155/4/3 157/4/3
f 159/4/3 155/4/3 158/4/3
f 160/4/3 155/4/3 159/4/3
f 163/2/3 162/2/3 161/2/3
f 165/2/3 163/2/3 161/2/3
f 165/2/3 164/2/3 163/2/3
f 166/2/3 164/2/3 165/2/3
f 167/2/3 165/2/3 161/2/3
f 168/2/3 165/2/3 167/2/3
f 171/2/3 170/2/3 169/2/3
f 173/2/3 171/2/3 169/2/3
f 173/2/3 172/2/3 171/2/3
f 174/2/3 172/2/3 173/2/3
f 175/2/3 173/2/3 169/2/3
f 176/2/3 173/2/3 175/2/3
f 177/2/4 178/2/4 179/2/4
f 179/2/4 178/2/4 180/2/4
f 180/2/4 181/2/4 182/2/4
f 182/2/4 181/2/4 183/2/4
f 184/2/4 185/2/4 187/2/4
f 187/2/4 185/2/4 188/2/4
f 186/2/4 187/2/4 189/2/4
f 189/2/4 187/2/4 190/2/4
f 191/2/4 192/2/4 193/2/4
f 193/2/4 192/2/4 194/2/4
f 195/2/4 196/2/4 197/2/4
f 197/2/4 196/2/4 198/2/4
f 199/2/4 200/2/4 201/2/4
f 201/2/4 200/2/4 202/2/4
f 203/4/4 204/4/4 208/4/4
f 206/6/4 207/6/4 209/6/4
f 207/4/4 208/4/4 209/4/4
f 208/4/4 204/4/4 210/4/4
f 209/4/4 208/4/4 210/4/4
f 205/5/4 206/5/4 211/5/4
f 206/6/4 209/6/4 212/6/4
f 211/5/4 206/5/4 212/5/4
f 212/6/4 209/6/4 213/6/4
f 213/6/4 209/6/4 216/6/4
f 216/6/4 209/6/4 217/6/4
f 215/6/4 216/6/4 217/6/4
f 210/4/4 204/4/4 218/4/4
f 214/5/4 215/5/4 219/5/4
f 215/6/4 217/6/4 220/6/4
f 219/5/4 215/5/4 220/5/4
f 217/4/4 218/4/4 221/4/4
f 220/6/4 217/6/4 221/6/4
f 221/4/4 218/4/4 222/4/4
f 222/4/4 218/4/4 223/4/4
f 218/4/4 204/4/4 224/4/4
f 223/4/4 218/4/4 224/4/4
f 225/4/4 226/4/4 227/4/4
f 227/4/4 226/4/4 228/4/4
f 233/5/5 230/5/5 229/5/5
f 234/5/5 230/5/5 233/5/5
f 235/5/5 232/5/5 231/5/5
f 236/5/5 232/5/5 235/5/5
f 239/6/5 238/6/5 237/6/5
f 240/6/5 238/6/5 239/6/5
f 243/4/5 242/4/5 241/4/5
f 244/4/5 242/4/5 243/4/5
f 250/4/5 246/4/5 245/4/5
f 251/4/5 248/4/5 247/4/5
f 253/2/5 250/2/5 249/2/5
f 254/2/5 250/2/5 253/2/5
f 255/2/5 252/2/5 251/2/5
f 256/2/5 252/2/5 255/2/5
f 257/2/5 250/2/5 254/2/5
f 258/4/5 246/4/5 250/4/5
f 258/2/5 250/2/5 257/2/5
f 259/4/5 251/4/5 247/4/5
f 259/2/5 255/2/5 251/2/5
f 260/2/5 255/2/5 259/2/5
f 261/4/5 246/4/5 258/4/5
f 262/4/5 246/4/5 261/4/5
f 263/4/5 259/4/5 247/4/5
f 264/4/5 259/4/5 263/4/5
f 267/2/5 266/2/5 265/2/5
f 268/2/5 266/2/5 267/2/5
f 269/5/6 270/5/6 273/5/6
f 273/5/6 270/5/6 274/5/6
f 271/5/6 272/5/6 275/5/6
f 275/5/6 272/5/6 276/5/6
f 277/4/6 278/4/6 279/4/6
f 279/4/6 278/4/6 280/4/6
f 281/4/6 282/4/6 288/4/6
f 283/4/6 284/4/6 289/4/6
f 285/2/6 286/2/6 293/2/6
f 293/2/6 286/2/6 294/2/6
f 287/2/6 288/2/6 295/2/6
f 289/2/6 290/2/6 296/2/6
f 291/2/6 292/2/6 297/2/6
f 297/2/6 292/2/6 298/2/6
f 294/2/6 295/2/6 299/2/6
f 288/4/6 282/4/6 300/4/6
f 299/2/6 295/2/6 300/2/6
f 295/2/6 288/2/6 300/2/6
f 300/4/6 282/4/6 301/4/6
f 283/4/6 289/4/6 302/4/6
f 289/2/6 296/2/6 303/2/6
f 296/2/6 297/2/6 303/2/6
f 302/4/6 289/4/6 303/4/6
f 303/2/6 297/2/6 304/2/6
f 301/4/6 302/4/6 305/4/6
f 300/4/6 301/4/6 305/4/6
f 302/4/6 303/4/6 305/4/6
f 305/4/6 303/4/6 306/4/6
f 307/2/6 308/2/6 311/2/6
f 311/2/6 308/2/6 312/2/6
f 309/2/6 310/2/6 313/2/6
f 313/2/6 310/2/6 314/2/6
f 315/2/6 316/2/6 317/2/6
f 317/2/6 316/2/6 318/2/6
